<?xml version="1.0" encoding="UTF-8" standalone="no"?>
<svg
   width="2500"
   height="2500"
   viewBox="22.754 18.688 204.872 204.82523"
   version="1.1"
   id="svg17"
   sodipodi:docname="duckduckgo.svg"
   inkscape:version="1.4.2 (f4327f4, 2025-05-13)"
   xmlns:inkscape="http://www.inkscape.org/namespaces/inkscape"
   xmlns:sodipodi="http://sodipodi.sourceforge.net/DTD/sodipodi-0.dtd"
   xmlns:xlink="http://www.w3.org/1999/xlink"
   xmlns="http://www.w3.org/2000/svg"
   xmlns:svg="http://www.w3.org/2000/svg">
  <sodipodi:namedview
     id="namedview17"
     pagecolor="#505050"
     bordercolor="#eeeeee"
     borderopacity="1"
     inkscape:showpageshadow="0"
     inkscape:pageopacity="0"
     inkscape:pagecheckerboard="0"
     inkscape:deskcolor="#505050"
     inkscape:zoom="0.14453778"
     inkscape:cx="411.65706"
     inkscape:cy="543.11058"
     inkscape:window-width="1920"
     inkscape:window-height="1009"
     inkscape:window-x="-8"
     inkscape:window-y="-8"
     inkscape:window-maximized="1"
     inkscape:current-layer="svg17" />
  <path
     d="m 221.91369,120.41036 c 0,55.28712 -43.47459,100.1078 -97.10487,100.1078 -53.626853,0 -97.101453,-44.81896 -97.101453,-100.1078 0,-55.288827 43.4746,-100.106068 97.101453,-100.106068 53.63028,0.0017 97.10487,44.818957 97.10487,100.106068 z"
     fill="#ffffff"
     id="path1"
     style="stroke-width:1.71694" />
  <linearGradient
     id="a"
     gradientUnits="userSpaceOnUse"
     x1="-768.41199"
     y1="2382.833"
     x2="-768.41199"
     y2="2263.5139"
     gradientTransform="matrix(1.7169383,0,0,1.7169383,1444.5026,-3867.6477)">
    <stop
       offset="0"
       stop-color="#d14427"
       id="stop1" />
    <stop
       offset="1"
       stop-color="#e55225"
       id="stop2" />
  </linearGradient>
  <path
     d="m 214.809,121.09713 c 0,49.49589 -40.12312,89.62589 -89.62245,89.62589 -49.499341,0 -89.622473,-40.13 -89.622473,-89.62589 0,-49.495872 40.123132,-89.622437 89.622473,-89.622437 49.49933,0 89.62245,40.126565 89.62245,89.622437 z m 12.81008,0 c 0,56.56796 -45.86458,102.43253 -102.43253,102.43253 -56.56798,0 -102.43255,-45.86457 -102.43255,-102.43253 0,-56.567941 45.86457,-102.432515 102.43255,-102.432515 56.56795,0 102.43253,45.862857 102.43253,102.432515 z m -8.45076,0 c 0,-51.901303 -42.08216,-93.97831 -93.98177,-93.97831 -51.897901,0 -93.98178,42.078724 -93.98178,93.97831 0,51.89961 42.085596,93.97833 93.98178,93.97833 51.89961,0 93.98177,-42.07872 93.98177,-93.97833 z"
     fill="url(#a)"
     id="path2"
     style="fill:url(#a);stroke-width:1.71694" />
  <defs
     id="defs2">
    <path
       id="b"
       d="m 179.922,78.207 c 0,28.895 -23.506,52.4 -52.404,52.4 -28.893,0 -52.396,-23.508 -52.396,-52.4 0,-28.891 23.506,-52.396 52.396,-52.396 28.898,-0.001 52.404,23.505 52.404,52.396 z" />
  </defs>
  <clipPath
     id="c">
    <use
       xlink:href="#b"
       overflow="visible"
       id="use2" />
  </clipPath>
  <g
     clip-path="url(#c)"
     id="g11"
     transform="matrix(1.7169384,0,0,1.7169384,-93.754001,-13.421527)">
    <path
       d="m 148.482,154.541 c -1.801,-8.285 -12.262,-27.039 -16.229,-34.969 -3.965,-7.93 -7.939,-19.11 -6.129,-26.322 0.327,-1.312 -3.436,-11.307 -2.354,-12.014 8.416,-5.49 10.632,0.598 14.001,-1.863 1.738,-1.273 4.09,1.047 4.693,-1.059 2.158,-7.568 -3.006,-20.76 -8.768,-26.527 -1.885,-1.879 -4.773,-3.059 -8.031,-3.686 -1.254,-1.713 -3.275,-3.361 -6.138,-4.879 -3.188,-1.697 -10.121,-3.938 -13.717,-4.535 -2.492,-0.41 -3.055,0.287 -4.119,0.461 0.992,0.088 5.699,2.414 6.615,2.549 -0.916,0.619 -3.607,-0.029 -5.324,0.742 -0.865,0.391 -1.512,1.877 -1.506,2.58 4.91,-0.496 12.574,-0.016 17.1,2 -3.602,0.41 -9.08,0.867 -11.436,2.105 -6.848,3.609 -9.873,12.035 -8.07,22.133 1.804,10.075 9.738,46.849 12.262,59.129 2.525,12.263 -5.408,20.189 -10.455,22.354 l 5.408,0.363 -1.801,3.967 c 6.484,0.719 13.695,-1.441 13.695,-1.441 -1.438,3.965 -11.176,5.412 -11.176,5.412 0,0 4.691,1.438 12.258,-1.447 7.575,-2.883 12.261,-4.688 12.261,-4.688 l 3.604,9.373 6.854,-6.846 2.883,7.211 c 0.012,-0.001 5.422,-1.808 3.619,-10.103 z"
       fill="#d5d7d8"
       id="path3" />
    <path
       d="m 150.66,152.859 c -1.795,-8.289 -12.256,-27.043 -16.227,-34.976 -3.969,-7.935 -7.934,-19.112 -6.129,-26.321 0.334,-1.309 0.34,-6.668 1.428,-7.379 8.41,-5.494 7.812,-0.184 11.186,-2.645 1.74,-1.27 3.133,-2.805 3.738,-4.912 2.164,-7.572 -3.006,-20.76 -8.773,-26.529 -1.879,-1.879 -4.768,-3.062 -8.025,-3.686 -1.252,-1.717 -3.271,-3.361 -6.131,-4.881 -5.391,-2.863 -12.074,-4.006 -18.266,-2.883 0.99,0.09 3.256,2.137 4.168,2.273 -1.381,0.936 -5.053,0.816 -5.029,2.896 4.916,-0.492 10.303,0.285 14.834,2.297 -3.602,0.41 -6.955,1.299 -9.311,2.543 -6.854,3.602 -8.656,10.812 -6.854,20.914 1.807,10.096 9.742,46.868 12.256,59.127 2.527,12.258 -5.402,20.188 -10.449,22.352 l 5.408,0.359 -1.801,3.973 c 6.484,0.718 13.695,-1.442 13.695,-1.442 -1.438,3.972 -11.176,5.405 -11.176,5.405 0,0 4.686,1.443 12.258,-1.444 7.578,-2.883 12.268,-4.685 12.268,-4.685 l 3.602,9.373 6.854,-6.85 2.889,7.211 c -0.009,0.006 5.396,-1.799 3.587,-10.09 z"
       fill="#ffffff"
       id="path4" />
    <path
       d="M 109.211,70.074 A 3.786,3.786 0 0 1 113,66.287 3.786,3.786 0 0 1 116.785,70.074 3.785,3.785 0 0 1 113,73.861 3.784,3.784 0 0 1 109.211,70.074 Z"
       fill="#2d4f8e"
       id="path5" />
    <path
       d="m 113.697,68.812 a 0.982,0.982 0 1 1 1.964,0 0.985,0.985 0 0 1 -0.984,0.984 0.984,0.984 0 0 1 -0.98,-0.984 z"
       fill="#ffffff"
       id="path6" />
    <path
       d="m 135.057,67.828 a 3.255,3.255 0 0 1 3.252,-3.25 3.254,3.254 0 1 1 -3.252,3.25 z"
       fill="#2d4f8e"
       id="path7" />
    <path
       d="m 138.914,66.746 c 0,-0.463 0.379,-0.842 0.838,-0.842 0.477,0 0.844,0.379 0.844,0.842 a 0.834,0.834 0 0 1 -0.844,0.842 0.84,0.84 0 0 1 -0.838,-0.842 z"
       fill="#ffffff"
       id="path8" />
    <linearGradient
       id="d"
       gradientUnits="userSpaceOnUse"
       x1="-790.422"
       y1="2305.189"
       x2="-781.854"
       y2="2305.189"
       gradientTransform="translate(895.93,-2244.825)">
      <stop
         offset=".006"
         stop-color="#6176b9"
         id="stop8" />
      <stop
         offset=".691"
         stop-color="#394a9f"
         id="stop9" />
    </linearGradient>
    <path
       d="m 114.076,59.101 c 0,0 -2.854,-1.291 -5.629,0.453 -2.77,1.742 -2.668,3.523 -2.668,3.523 0,0 -1.473,-3.283 2.453,-4.891 3.93,-1.61 5.844,0.915 5.844,0.915 z"
       fill="url(#d)"
       id="path9"
       style="fill:url(#d)" />
    <linearGradient
       id="e"
       gradientUnits="userSpaceOnUse"
       x1="-763.46698"
       y1="2302.5791"
       x2="-755.66302"
       y2="2302.5791"
       gradientTransform="translate(895.93,-2244.825)">
      <stop
         offset=".006"
         stop-color="#6176b9"
         id="stop10" />
      <stop
         offset=".691"
         stop-color="#394a9f"
         id="stop11" />
    </linearGradient>
    <path
       d="m 140.268,58.841 c 0,0 -2.051,-1.172 -3.643,-1.152 -3.268,0.043 -4.162,1.488 -4.162,1.488 0,0 0.549,-3.445 4.734,-2.754 2.266,0.377 3.071,2.418 3.071,2.418 z"
       fill="url(#e)"
       id="path11"
       style="fill:url(#e)" />
  </g>
  <path
     d="m 120.15934,131.96535 c 0.65074,-3.93351 10.81501,-11.37472 18.01069,-11.82456 7.21285,-0.45326 9.46033,-0.35197 15.46961,-1.79077 6.02302,-1.43879 21.52183,-5.30191 25.81073,-7.28325 4.29922,-1.98478 22.49533,0.98208 9.66809,8.13486 -5.55258,3.10594 -20.50882,8.8096 -31.20021,11.99796 -10.67763,3.19522 -17.15221,-3.051 -20.70455,2.19939 -2.82609,4.1756 -0.57346,9.893 12.18683,11.07942 17.2329,1.59675 33.755,-7.76058 35.57324,-2.79003 1.82682,4.97053 -14.80859,11.17384 -24.94197,11.37129 -10.11447,0.19058 -30.51857,-6.68919 -33.57129,-8.81993 -3.06473,-2.12728 -7.14933,-7.09095 -6.30117,-12.27438 z"
     fill="#fdd20a"
     id="path12"
     style="stroke-width:1.71694" />
  <g
     id="g16"
     transform="matrix(1.7169384,0,0,1.7169384,-93.754001,-13.421527)">
    <path
       d="m 129.133,115.975 c 0,0 -14.1,-7.521 -14.33,-4.47 -0.238,3.056 0,15.509 1.643,16.451 1.646,0.938 13.395,-6.108 13.395,-6.108 z m 5.402,-0.474 c 0,0 9.635,-7.285 11.754,-6.815 2.111,0.479 2.582,15.511 0.701,16.225 -1.881,0.695 -12.908,-3.816 -12.908,-3.816 z"
       fill="#65bc46"
       id="path14" />
    <path
       d="m 125.719,116.771 c 0,4.931 -0.708,7.049 1.41,7.517 2.111,0.473 6.105,0 7.518,-0.938 1.41,-0.939 0.232,-7.281 -0.234,-8.465 -0.475,-1.171 -8.694,-0.228 -8.694,1.886 z"
       fill="#43a244"
       id="path15" />
    <path
       d="m 126.615,115.675 c 0,4.933 -0.707,7.05 1.41,7.519 2.109,0.475 6.104,0 7.518,-0.938 1.41,-0.941 0.232,-7.279 -0.238,-8.466 -0.471,-1.172 -8.69,-0.228 -8.69,1.885 z"
       fill="#65bc46"
       id="path16" />
  </g>
  <path
     d="m 146.66716,207.54497 a 89.804459,89.804459 0 0 1 -22.17598,2.7677 c -8.09535,0 -15.93662,-1.09369 -23.40358,-3.10937 l 0.0859,0.70909 a 89.694576,89.694576 0 0 0 23.31945,3.08362 c 7.74512,0 15.26358,-0.98379 22.43695,-2.8295 z"
     fill="#ffffff"
     id="path17"
     style="stroke-width:1.71694" />
</svg>
