<?xml version="1.0" encoding="UTF-8" standalone="no"?>
<!-- Generator: Adobe Illustrator 25.0.0, SVG Export Plug-In . SVG Version: 6.00 Build 0)  -->

<svg
   version="1.1"
   id="Capa_1"
   x="0px"
   y="0px"
   viewBox="0 0 512 512"
   style="enable-background:new 0 0 512 512;"
   xml:space="preserve"
   width="512"
   height="512"
   sodipodi:docname="trash.svg"
   inkscape:version="1.4.2 (f4327f4, 2025-05-13)"
   xmlns:inkscape="http://www.inkscape.org/namespaces/inkscape"
   xmlns:sodipodi="http://sodipodi.sourceforge.net/DTD/sodipodi-0.dtd"
   xmlns="http://www.w3.org/2000/svg"
   xmlns:svg="http://www.w3.org/2000/svg"><defs
   id="defs3" /><sodipodi:namedview
   id="namedview3"
   pagecolor="#505050"
   bordercolor="#eeeeee"
   borderopacity="1"
   inkscape:showpageshadow="0"
   inkscape:pageopacity="0"
   inkscape:pagecheckerboard="0"
   inkscape:deskcolor="#505050"
   inkscape:zoom="1.5761719"
   inkscape:cx="255.68278"
   inkscape:cy="256"
   inkscape:window-width="1920"
   inkscape:window-height="1009"
   inkscape:window-x="1912"
   inkscape:window-y="-8"
   inkscape:window-maximized="1"
   inkscape:current-layer="Capa_1" />
<g
   id="g3"
   style="fill:#941919;fill-opacity:1">
	<path
   d="M490.667,96c0-17.673-14.327-32-32-32h-80.555C364.632,25.757,328.549,0.13,288,0h-64   c-40.549,0.13-76.632,25.757-90.112,64H53.333c-17.673,0-32,14.327-32,32l0,0c0,17.673,14.327,32,32,32H64v266.667   C64,459.468,116.532,512,181.333,512h149.333C395.468,512,448,459.468,448,394.667V128h10.667   C476.34,128,490.667,113.673,490.667,96z M384,394.667C384,424.122,360.122,448,330.667,448H181.333   C151.878,448,128,424.122,128,394.667V128h256V394.667z"
   id="path1"
   style="fill:#941919;fill-opacity:1" />
	<path
   d="M202.667,384c17.673,0,32-14.327,32-32V224c0-17.673-14.327-32-32-32s-32,14.327-32,32v128   C170.667,369.673,184.994,384,202.667,384z"
   id="path2"
   style="fill:#941919;fill-opacity:1" />
	<path
   d="M309.333,384c17.673,0,32-14.327,32-32V224c0-17.673-14.327-32-32-32s-32,14.327-32,32v128   C277.333,369.673,291.66,384,309.333,384z"
   id="path3"
   style="fill:#941919;fill-opacity:1" />
</g>















</svg>
